<?xml version="1.0" encoding="UTF-8"?>
<svg version="1.1" xmlns="http://www.w3.org/2000/svg" width="1350" height="358">
<path d="M0 0 C445.5 0 891 0 1350 0 C1350 118.14 1350 236.28 1350 358 C904.5 358 459 358 0 358 C0 239.86 0 121.72 0 0 Z " fill="#FEFEFE" transform="translate(0,0)"/>
<path d="M0 0 C17.39312 14.83990263 30.12760178 34.0040755 35.57666016 56.34521484 C35.91310547 57.68132812 35.91310547 57.68132812 36.25634766 59.04443359 C40.462831 79.24131596 38.02459887 102.51917922 29.57666016 121.34521484 C29.08423828 122.44994141 28.59181641 123.55466797 28.08447266 124.69287109 C24.1493109 133.02562144 19.42817296 140.1842726 13.57666016 147.34521484 C12.65626953 148.51310547 12.65626953 148.51310547 11.71728516 149.70458984 C3.62882599 159.45222012 -7.27051162 167.43970088 -18.42333984 173.34521484 C-19.18904297 173.77189453 -19.95474609 174.19857422 -20.74365234 174.63818359 C-29.99690493 179.35183107 -40.33331565 181.20111124 -50.42333984 183.34521484 C-51.68416382 183.61785156 -51.68416382 183.61785156 -52.97045898 183.89599609 C-77.5153919 188.39113659 -103.96412037 180.746127 -124.42333984 167.34521484 C-128.29642721 164.54885622 -131.88495153 161.55267476 -135.42333984 158.34521484 C-136.15399658 157.68827637 -136.15399658 157.68827637 -136.89941406 157.01806641 C-148.9059915 146.08756834 -157.28168465 133.37967678 -163.42333984 118.34521484 C-163.98988281 117.03037109 -163.98988281 117.03037109 -164.56787109 115.68896484 C-174.24787766 91.61583991 -172.28001288 62.55733794 -162.49755859 38.85302734 C-156.94541403 26.34258851 -149.11667313 15.91584771 -139.42333984 6.34521484 C-138.53775391 5.46091797 -137.65216797 4.57662109 -136.73974609 3.66552734 C-123.15016395 -9.31262222 -106.5479455 -17.20912717 -88.42333984 -21.65478516 C-87.55708984 -21.88166016 -86.69083984 -22.10853516 -85.79833984 -22.34228516 C-56.00849528 -29.04500018 -23.19577523 -19.02392623 0 0 Z " fill="#FBFBFD" transform="translate(263.42333984375,101.65478515625)"/>
<path d="M0 0 C3.63 0 7.26 0 11 0 C11 10.56 11 21.12 11 32 C19.91 32 28.82 32 38 32 C38 35.3 38 38.6 38 42 C29.09 42 20.18 42 11 42 C10.88136918 52.5116005 10.81088524 63.02066893 10.82121754 73.53294945 C10.82417525 78.41626694 10.80742524 83.29773478 10.74291992 88.18066406 C10.68123688 92.90826748 10.67486735 97.63321999 10.70416832 102.36110306 C10.7060472 104.14935213 10.68919991 105.93773901 10.65177345 107.72559738 C10.36843829 122.20294645 14.41251372 131.39959462 23 143 C25.4248762 140.60889725 27.5986131 138.35103326 29.47265625 135.50390625 C29.89740234 134.86259766 30.32214844 134.22128906 30.75976562 133.56054688 C31.40461914 132.57151367 31.40461914 132.57151367 32.0625 131.5625 C32.49626953 130.90701172 32.93003906 130.25152344 33.37695312 129.57617188 C35.66897069 126.0980265 37.88901125 122.59214151 40 119 C39.154375 118.82984375 38.30875 118.6596875 37.4375 118.484375 C28.11306775 116.4923372 20.28639433 114.58065199 14 107 C10.65984239 100.05910511 10.89475081 92.59015427 13.1328125 85.3203125 C14.60376698 81.73919295 16.10625903 78.37834038 18 75 C18.34194397 74.32446075 18.68388794 73.64892151 19.03619385 72.95291138 C21.14009021 69.44307566 22.70158307 67.34722761 26.75289917 66.2638092 C30.23699736 65.98919104 33.63853489 65.96994092 37.1328125 66.04296875 C39.03690384 66.04216057 39.03690384 66.04216057 40.97946167 66.04133606 C43.65958214 66.04903146 46.33406735 66.07202336 49.01318359 66.12182617 C52.44147051 66.18432736 55.86683162 66.18908279 59.29556465 66.1748457 C62.57488369 66.16688634 65.85366195 66.19968527 69.1328125 66.23046875 C70.36202423 66.22975876 71.59123596 66.22904877 72.85769653 66.22831726 C74.56999954 66.26648308 74.56999954 66.26648308 76.31689453 66.30541992 C77.82197067 66.32495979 77.82197067 66.32495979 79.35745239 66.34489441 C82.9800931 67.24297177 83.97894309 68.94154233 86 72 C87.29834395 74.32250346 88.51861232 76.61638591 89.6875 79 C89.99494141 79.60328125 90.30238281 80.2065625 90.61914062 80.828125 C94.1950057 88.02680305 94.77760049 95.04039497 94 103 C90.4960229 110.26750805 84.94105083 113.28016252 77.6953125 116.0703125 C75.04728289 116.98369083 72.39383372 117.71850388 69.6875 118.4375 C65.32167183 119.69370527 62.83964886 121.33593695 60 125 C58.99994696 128.00015912 58.88424415 129.97423756 58.90234375 133.10546875 C58.90556641 134.08837891 58.90878906 135.07128906 58.91210938 136.08398438 C58.92048828 137.10814453 58.92886719 138.13230469 58.9375 139.1875 C58.94426758 140.74114258 58.94426758 140.74114258 58.95117188 142.32617188 C58.9629599 144.88417266 58.97941485 147.44205733 59 150 C63.96978983 151.71421736 68.86330028 152.91039703 74 154 C74 156.97 74 159.94 74 163 C63.44 163 52.88 163 42 163 C42 166.96 42 170.92 42 175 C41.505 177.97 41.505 177.97 41 181 C17.57 181 -5.86 181 -30 181 C-31.16375867 165.289258 -32.24937176 150.58573513 -32 135 C-42.23 135 -52.46 135 -63 135 C-63 129.72 -63 124.44 -63 119 C-64.98 118.2265625 -64.98 118.2265625 -67 117.4375 C-72.92352091 114.79858547 -78.06294293 111.14771773 -81.5 105.5625 C-82.85471869 98.61956669 -82.41384107 91.98934213 -78.6953125 85.84375 C-68.55903125 71.68205562 -52.81889143 66.49547566 -36.77685547 61.97070312 C-29.90023677 60.0241676 -23.1467443 57.74797126 -16.39404297 55.41040039 C-10.97293916 53.56045791 -5.61328294 52.14868592 0 51 C0 48.36 0 45.72 0 43 C-8.91 43 -17.82 43 -27 43 C-27 39.37 -27 35.74 -27 32 C-18.09 32 -9.18 32 0 32 C0 21.44 0 10.88 0 0 Z " fill="#160899" transform="translate(191,91)"/>
<path d="M0 0 C1.16660156 0.26554687 2.33320313 0.53109375 3.53515625 0.8046875 C32.49251056 8.49248068 57.11463038 30.77151613 71.90576172 56.11474609 C72.26686035 56.73687988 72.62795898 57.35901367 73 58 C73.86818359 59.46373047 73.86818359 59.46373047 74.75390625 60.95703125 C89.08129827 87.10545689 90.51667093 119.42186384 82.69238281 147.65917969 C81.20538222 152.68645814 79.38155043 157.33397321 77 162 C76.71253906 162.58152832 76.42507813 163.16305664 76.12890625 163.76220703 C62.30292346 191.63647834 40.73406084 212.13076703 12 224 C11.14792969 224.36609375 10.29585937 224.7321875 9.41796875 225.109375 C-17.98785924 236.05486698 -49.10718659 234.6555889 -76.13671875 223.296875 C-77.08160156 222.86890625 -78.02648437 222.4409375 -79 222 C-79.97582031 221.57203125 -80.95164062 221.1440625 -81.95703125 220.703125 C-106.41371357 209.29214347 -124.32888693 189.41167447 -137 166 C-137.515625 165.05511719 -138.03125 164.11023438 -138.5625 163.13671875 C-142.79140016 154.63927248 -144.87487201 145.20958931 -147 136 C-147.18103271 135.24283691 -147.36206543 134.48567383 -147.54858398 133.70556641 C-148.11913366 130.28597123 -148.20107508 126.91058516 -148.23828125 123.453125 C-148.246353 122.72365662 -148.25442474 121.99418823 -148.26274109 121.24261475 C-148.27653925 119.6961094 -148.2872804 118.14957414 -148.29516602 116.60302734 C-148.30656443 115.0557329 -148.32681793 113.50847385 -148.35668945 111.96142578 C-148.96104513 80.56869343 -135.57809591 52.5031633 -114.0078125 29.94921875 C-97.58191139 13.44156962 -76.50456317 3.235961 -54 -2 C-53.13632813 -2.226875 -52.27265625 -2.45375 -51.3828125 -2.6875 C-34.46937816 -6.57813026 -16.60959612 -3.99209922 0 0 Z M-112 48 C-129.88619922 71.10378934 -137.91218441 99.00985666 -134.5703125 128.15234375 C-130.79306836 155.43138582 -115.47948763 180.65649656 -93.83984375 197.5390625 C-71.64542838 213.54544384 -44.84876864 221.32602335 -17.48291016 217.66308594 C2.56168476 214.32296593 20.21719182 206.8566525 36 194 C36.72832031 193.42507813 37.45664062 192.85015625 38.20703125 192.2578125 C55.19429346 178.25253517 66.35998609 157.2414707 71 136 C71.22558594 135.06285156 71.45117188 134.12570313 71.68359375 133.16015625 C74.88641507 117.7645255 73.81290069 101.16251631 70 86 C69.80664062 85.20207031 69.61328125 84.40414062 69.4140625 83.58203125 C64.70716686 67.29128205 54.45127638 53.15319349 43 41 C42.39800781 40.32195312 41.79601562 39.64390625 41.17578125 38.9453125 C31.90028958 28.92536705 19.50951577 22.11679548 7 17 C6.13503906 16.62230469 5.27007812 16.24460937 4.37890625 15.85546875 C-36.29583218 -0.67444778 -84.41393904 15.37060951 -112 48 Z " fill="#EEEDF7" transform="translate(228,68)"/>
<path d="M0 0 C1.16660156 0.26554687 2.33320313 0.53109375 3.53515625 0.8046875 C32.49251056 8.49248068 57.11463038 30.77151613 71.90576172 56.11474609 C72.26686035 56.73687988 72.62795898 57.35901367 73 58 C73.86818359 59.46373047 73.86818359 59.46373047 74.75390625 60.95703125 C89.08129827 87.10545689 90.51667093 119.42186384 82.69238281 147.65917969 C81.20538222 152.68645814 79.38155043 157.33397321 77 162 C76.71253906 162.58152832 76.42507813 163.16305664 76.12890625 163.76220703 C62.30292346 191.63647834 40.73406084 212.13076703 12 224 C11.14792969 224.36609375 10.29585937 224.7321875 9.41796875 225.109375 C-17.98785924 236.05486698 -49.10718659 234.6555889 -76.13671875 223.296875 C-77.08160156 222.86890625 -78.02648437 222.4409375 -79 222 C-79.97582031 221.57203125 -80.95164062 221.1440625 -81.95703125 220.703125 C-106.41371357 209.29214347 -124.32888693 189.41167447 -137 166 C-137.515625 165.05511719 -138.03125 164.11023438 -138.5625 163.13671875 C-142.79140016 154.63927248 -144.87487201 145.20958931 -147 136 C-147.18103271 135.24283691 -147.36206543 134.48567383 -147.54858398 133.70556641 C-148.11913366 130.28597123 -148.20107508 126.91058516 -148.23828125 123.453125 C-148.246353 122.72365662 -148.25442474 121.99418823 -148.26274109 121.24261475 C-148.27653925 119.6961094 -148.2872804 118.14957414 -148.29516602 116.60302734 C-148.30656443 115.0557329 -148.32681793 113.50847385 -148.35668945 111.96142578 C-148.96104513 80.56869343 -135.57809591 52.5031633 -114.0078125 29.94921875 C-97.58191139 13.44156962 -76.50456317 3.235961 -54 -2 C-53.13632813 -2.226875 -52.27265625 -2.45375 -51.3828125 -2.6875 C-34.46937816 -6.57813026 -16.60959612 -3.99209922 0 0 Z M-61 6 C-61.77077881 6.21382324 -62.54155762 6.42764648 -63.33569336 6.64794922 C-79.34993556 11.37021952 -93.69382225 19.73192007 -106 31 C-106.92296875 31.84175781 -107.8459375 32.68351562 -108.796875 33.55078125 C-125.41103336 49.40766443 -135.5504167 68.93745555 -140.16796875 91.21875 C-141 95 -141 95 -142 97 C-142.94796545 112.41018376 -142.73311092 127.98033412 -139 143 C-138.80664062 143.87269531 -138.61328125 144.74539062 -138.4140625 145.64453125 C-133.51632386 164.82204035 -121.70805717 181.17210104 -108 195 C-107.19820312 195.8146875 -106.39640625 196.629375 -105.5703125 197.46875 C-85.14151748 217.00335534 -56.42886508 226.49076013 -28.46411133 226.36621094 C3.68094565 225.39967301 30.94731034 211.01321122 53.01953125 188.23046875 C56.87295531 184.13658141 60.0511012 179.7826049 63 175 C63.85464844 173.68708984 63.85464844 173.68708984 64.7265625 172.34765625 C80.47401192 147.06155355 84.38412593 117.24316329 78.22265625 88.35546875 C73.02660542 67.05835053 62.43963122 49.43963122 47 34 C45.79923828 32.79923828 45.79923828 32.79923828 44.57421875 31.57421875 C22.73750609 10.88116371 -3.94872285 2.87422866 -33.4375 2.75 C-34.65759766 2.729375 -35.87769531 2.70875 -37.13476562 2.6875 C-45.49512949 2.6519429 -52.95893136 3.73470021 -61 6 Z " fill="#1C0F9D" transform="translate(228,68)"/>
<path d="M0 0 C1.51364136 0.01341431 1.51364136 0.01341431 3.05786133 0.02709961 C27.89872384 0.41165776 51.89973796 8.70791322 70.6875 25.25 C71.49445313 25.91386719 72.30140625 26.57773438 73.1328125 27.26171875 C92.7958988 43.93527625 104.98406127 67.88705597 108.6875 93.25 C111.00456566 121.78365134 104.45455286 151.94383163 85.6875 174.25 C67.30340179 195.78169866 42.31681487 211.62889066 13.61157227 214.04052734 C-6.55857099 215.48546204 -26.20934891 214.01728152 -44.3125 204.25 C-45.82263672 203.51523437 -45.82263672 203.51523437 -47.36328125 202.765625 C-71.70992528 190.51940884 -89.88672427 169.34684295 -99.44140625 143.91015625 C-105.95783603 124.010207 -108.66732318 101.54941493 -102.3125 81.25 C-101.98378906 80.01636719 -101.65507813 78.78273438 -101.31640625 77.51171875 C-97.29148317 62.85516133 -90.43193315 49.63181716 -80.3125 38.25 C-79.72339844 37.51910156 -79.13429688 36.78820312 -78.52734375 36.03515625 C-59.83398985 13.45231471 -29.08226093 -0.29336179 0 0 Z M-79.3125 41.25 C-97.19869922 64.35378934 -105.22468441 92.25985666 -101.8828125 121.40234375 C-98.10556836 148.68138582 -82.79198763 173.90649656 -61.15234375 190.7890625 C-38.95792838 206.79544384 -12.16126864 214.57602335 15.20458984 210.91308594 C35.24918476 207.57296593 52.90469182 200.1066525 68.6875 187.25 C69.41582031 186.67507813 70.14414062 186.10015625 70.89453125 185.5078125 C87.88179346 171.50253517 99.04748609 150.4914707 103.6875 129.25 C103.91308594 128.31285156 104.13867188 127.37570313 104.37109375 126.41015625 C107.57391507 111.0145255 106.50040069 94.41251631 102.6875 79.25 C102.49414062 78.45207031 102.30078125 77.65414062 102.1015625 76.83203125 C97.39466686 60.54128205 87.13877638 46.40319349 75.6875 34.25 C75.08550781 33.57195312 74.48351562 32.89390625 73.86328125 32.1953125 C64.58778958 22.17536705 52.19701577 15.36679548 39.6875 10.25 C38.82253906 9.87230469 37.95757812 9.49460937 37.06640625 9.10546875 C-3.60833218 -7.42444778 -51.72643904 8.62060951 -79.3125 41.25 Z " fill="#281CA3" transform="translate(195.3125,74.75)"/>
<path d="M0 0 C2.10073853 -0.36076355 2.10073853 -0.36076355 4.72509766 -0.34057617 C5.70596344 -0.34034958 6.68682922 -0.34012299 7.69741821 -0.33988953 C8.75891083 -0.32440567 9.82040344 -0.30892181 10.9140625 -0.29296875 C11.99883881 -0.28872391 13.08361511 -0.28447906 14.20126343 -0.28010559 C17.67609167 -0.263273 21.15034618 -0.22561189 24.625 -0.1875 C26.97655414 -0.17245911 29.32811735 -0.15876967 31.6796875 -0.14648438 C37.45332173 -0.11335454 43.22661989 -0.06310982 49 0 C49.99732416 1.88257671 50.98182456 3.77195035 51.9609375 5.6640625 C52.51056152 6.7154541 53.06018555 7.7668457 53.62646484 8.85009766 C55.58956151 13.35203031 55.97839418 17.20243555 55 22 C52.48540638 27.55306091 48.44330039 30.5468119 43 33 C31.42268033 36.8000386 14.15282826 37.21809033 3 32 C-1.85731273 29.43887147 -4.22141224 27.23695286 -6 22 C-7.26077377 13.89057861 -4.46596617 6.69894925 0 0 Z " fill="#FBFBFD" transform="translate(220,167)"/>
<path d="M0 0 C3.125 1.5 3.125 1.5 5 3 C5.33 2.34 5.66 1.68 6 1 C10.29 1 14.58 1 19 1 C19.09911689 6.87153231 19.17158611 12.74257413 19.21972656 18.61474609 C19.23980169 20.61092618 19.26706789 22.60704775 19.30175781 24.60302734 C19.35045657 27.4776862 19.37300986 30.3515654 19.390625 33.2265625 C19.41127014 34.11429352 19.43191528 35.00202454 19.45318604 35.91665649 C19.45518152 41.46750874 18.6949983 44.59102115 15 49 C9.64936126 54.20602688 4.25225298 55.10334686 -2.9375 55.375 C-9.32213934 55.24730721 -13.90160301 53.90143288 -18.59765625 49.50390625 C-20.92952654 46.89922662 -22 45.56253567 -22 42 C-19.52076199 41.97314905 -17.0418116 41.95323453 -14.5625 41.9375 C-13.85544922 41.92912109 -13.14839844 41.92074219 -12.41992188 41.91210938 C-10.61306441 41.90346412 -8.80612397 41.94779989 -7 42 C-6.505 42.495 -6.505 42.495 -6 43 C-0.3952291 43.21326403 -0.3952291 43.21326403 5 42 C5 39.69 5 37.38 5 35 C4.401875 35.495 3.80375 35.99 3.1875 36.5 C-1.52428256 38.71730944 -5.87789567 38.67138039 -11 38 C-15.88499523 35.64796526 -18.85503625 32.31309314 -22 28 C-23.64108087 22.98327809 -23.99050836 17.04909501 -22.3515625 12.00390625 C-17.49912141 2.69302569 -10.1504233 -0.95608383 0 0 Z " fill="#120598" transform="translate(978,175)"/>
<path d="M0 0 C4.00965141 2.80808369 7.42580437 5.27741312 9 10 C4.74491158 11.99496727 0.55503333 13.81339468 -4 15 C-7.1875 13.3125 -7.1875 13.3125 -10 11 C-15.04893291 10.09035754 -18.91236133 10.45618066 -23.5 12.75 C-26.7132305 15.64190745 -27.84362028 17.52353175 -28.30078125 21.83984375 C-28.30464844 22.86207031 -28.30851562 23.88429687 -28.3125 24.9375 C-28.32925781 25.95714844 -28.34601563 26.97679687 -28.36328125 28.02734375 C-27.83314055 32.36537679 -26.17282516 34.99964913 -22.875 37.8125 C-18.32634075 39.69129404 -13.47571774 39.94121882 -8.83203125 38.17578125 C-6.07569528 36.40678951 -5.27671512 33.93644479 -4 31 C-7.96 31 -11.92 31 -16 31 C-16 27.37 -16 23.74 -16 20 C-6.76 20 2.48 20 12 20 C12 31.28194082 10.26600207 38.61431607 2.25 46.8125 C-5.59114927 52.09019663 -13.66068685 53.03126411 -23 52 C-26.33911641 51.1072151 -29.07313287 49.82498774 -32 48 C-32.63679688 47.61070312 -33.27359375 47.22140625 -33.9296875 46.8203125 C-40.45879563 42.08460746 -43.19364463 34.7281747 -44.515625 26.9765625 C-44.97922284 18.94789086 -42.6115018 12.5353185 -38 6 C-27.99665729 -4.21731795 -12.91520419 -6.30384966 0 0 Z " fill="#120498" transform="translate(374,161)"/>
<path d="M0 0 C2.49982861 1.43059499 3.98843987 2.88256828 6 5 C8.18448128 3.98577655 9.98499053 3.01255569 11.83984375 1.4609375 C15.05529079 -0.7137048 17.65773692 -0.59324813 21.453125 -0.4921875 C25.65347571 0.31953672 28.3754082 2.70120113 31 6 C32.11911712 9.35735137 32.11365586 11.88205386 32.09765625 15.41796875 C32.09443359 16.67158203 32.09121094 17.92519531 32.08789062 19.21679688 C32.07532227 21.18229492 32.07532227 21.18229492 32.0625 23.1875 C32.05748317 24.52278481 32.05292059 25.85807141 32.04882812 27.19335938 C32.03702704 30.4622588 32.01909136 33.73113502 32 37 C27.38 37 22.76 37 18 37 C17.67 29.08 17.34 21.16 17 13 C11.51228218 11.41498891 11.51228218 11.41498891 9.15698242 13.1184082 C7.65926589 15.55413331 7.57074504 17.25222149 7.48828125 20.10546875 C7.45283203 21.08837891 7.41738281 22.07128906 7.38085938 23.08398438 C7.35830078 24.10814453 7.33574219 25.13230469 7.3125 26.1875 C7.27833984 27.22326172 7.24417969 28.25902344 7.20898438 29.32617188 C7.12648241 31.88373264 7.06156544 34.44184963 7 37 C2.71 37 -1.58 37 -6 37 C-6.495 25.12 -6.495 25.12 -7 13 C-9.31 12.67 -11.62 12.34 -14 12 C-16.56136221 14.56136221 -16.29666857 15.66561331 -16.4140625 19.2265625 C-16.47207031 20.7734375 -16.47207031 20.7734375 -16.53125 22.3515625 C-16.5621875 23.43179688 -16.593125 24.51203125 -16.625 25.625 C-16.68300781 27.25695312 -16.68300781 27.25695312 -16.7421875 28.921875 C-16.83665846 31.61429745 -16.91942581 34.30712584 -17 37 C-21.29 37 -25.58 37 -30 37 C-30 25.12 -30 13.24 -30 1 C-25.71 1 -21.42 1 -17 1 C-17 1.99 -17 2.98 -17 4 C-16.05125 3.34 -15.1025 2.68 -14.125 2 C-9.55117817 -0.58843061 -5.13961472 -1.0211714 0 0 Z " fill="#130698" transform="translate(635,175)"/>
<path d="M0 0 C4.62 0 9.24 0 14 0 C14.33 6.6 14.66 13.2 15 20 C16.36125 18.185 17.7225 16.37 19.125 14.5 C19.58084473 13.90864258 20.03668945 13.31728516 20.50634766 12.70800781 C22.32044464 10.34991126 23.96563654 8.06631546 25.3359375 5.421875 C26.71111673 2.85610436 27.51991896 1.56921491 30 0 C35.61612233 -0.95752162 41.35483438 -0.45261907 47 0 C44.438592 4.74775269 41.056783 8.55224689 37.5 12.5625 C35.80071777 14.48973472 34.10472854 16.41878467 32.42578125 18.36376953 C31.30265044 19.65267752 30.14213257 20.90900953 28.96875 22.15234375 C27.75664553 24.0021781 27.75664553 24.0021781 28.421875 26.29296875 C30.60703186 30.04126999 33.35033728 33.10015624 36.25 36.3125 C37.42768972 37.64284421 38.60349425 38.97485983 39.77734375 40.30859375 C40.33663574 40.94394043 40.89592773 41.57928711 41.47216797 42.23388672 C49 50.93576222 49 50.93576222 49 53 C42.97523743 54.10658904 36.9070997 55.04806462 31 53 C24.97506196 48.28220806 20.96598771 41.44394063 17 35 C16.34 34.01 15.68 33.02 15 32 C14.67 38.93 14.34 45.86 14 53 C9.38 53 4.76 53 0 53 C0 35.51 0 18.02 0 0 Z " fill="#110497" transform="translate(395,159)"/>
<path d="M0 0 C-0.32613281 0.81597656 -0.65226562 1.63195312 -0.98828125 2.47265625 C-2.17433016 6.60779974 -2.26083765 10.16833206 -2.1875 14.4375 C-2.18105469 15.23172363 -2.17460937 16.02594727 -2.16796875 16.84423828 C-2.09036377 22.90591489 -1.68957497 28.92120561 -1.22265625 34.96484375 C-0.70056562 42.9559015 -0.92687609 50.99699436 -1 59 C-4.25390625 59.3125 -4.25390625 59.3125 -8 59 C-10.21484375 56.8125 -10.21484375 56.8125 -11.9375 54 C-12.52402344 53.071875 -13.11054688 52.14375 -13.71484375 51.1875 C-14.13894531 50.465625 -14.56304687 49.74375 -15 49 C-15.33 52.3 -15.66 55.6 -16 59 C-21.94 59 -27.88 59 -34 59 C-33.25903917 30.66799755 -33.25903917 30.66799755 -32.25 18.875 C-32.20053223 18.10760498 -32.15106445 17.34020996 -32.10009766 16.54956055 C-31.7839891 13.35052718 -31.49377961 11.45641797 -29.08984375 9.234375 C-24.5546567 7.42259357 -19.96299355 5.86315794 -15.3125 4.375 C-13.41236963 3.75901668 -11.51261075 3.14188584 -9.61328125 2.5234375 C-8.77579346 2.25450684 -7.93830566 1.98557617 -7.07543945 1.70849609 C-2.07064094 0 -2.07064094 0 0 0 Z " fill="#F8F8FC" transform="translate(173,157)"/>
<path d="M0 0 C2.5954926 1.11849958 4.64557104 2.39698454 7 4 C7.33 3.01 7.66 2.02 8 1 C12.29 1 16.58 1 21 1 C21 12.88 21 24.76 21 37 C16.71 37 12.42 37 8 37 C7.67 36.01 7.34 35.02 7 34 C6.21625 34.66 5.4325 35.32 4.625 36 C0.2977875 38.84738747 -3.99529844 38.8663471 -9 38 C-14.90880303 35.86255473 -18.41917791 32.0384488 -21.15234375 26.4609375 C-23.11148817 20.77309885 -22.84692473 15.30242123 -20.5625 9.75 C-16.25388143 2.28577346 -8.51704479 -1.88580665 0 0 Z " fill="#150799" transform="translate(745,175)"/>
<path d="M0 0 C0.804375 0.495 1.60875 0.99 2.4375 1.5 C2.7675 0.84 3.0975 0.18 3.4375 -0.5 C7.7275 -0.5 12.0175 -0.5 16.4375 -0.5 C16.4375 11.38 16.4375 23.26 16.4375 35.5 C12.1475 35.5 7.8575 35.5 3.4375 35.5 C3.4375 34.51 3.4375 33.52 3.4375 32.5 C2.65375 33.16 1.87 33.82 1.0625 34.5 C-3.25781667 37.34284989 -7.56506075 37.38053798 -12.5625 36.5 C-17.46747578 34.57213126 -21.83008827 31.22865228 -24.71484375 26.7890625 C-27.06108786 20.45312219 -26.70937887 13.01431138 -23.9375 6.9375 C-16.88481936 -0.3007775 -9.97778475 -4.20117253 0 0 Z " fill="#110397" transform="translate(699.5625,176.5)"/>
<path d="M0 0 C4.29 0 8.58 0 13 0 C13.33 8.25 13.66 16.5 14 25 C15.65 24.01 17.3 23.02 19 22 C23.96680469 21.12628317 27.93964975 21.46018533 32.4375 23.75 C37.83487774 28.48916095 37.83487774 28.48916095 38.34057617 33.11621094 C38.3170105 34.90720215 38.3170105 34.90720215 38.29296875 36.734375 C38.2784668 38.67763672 38.2784668 38.67763672 38.26367188 40.66015625 C38.23860783 42.02344354 38.21321302 43.38672479 38.1875 44.75 C38.17244518 46.12889184 38.15875817 47.50779935 38.14648438 48.88671875 C38.11112149 52.25798064 38.05731481 55.62903986 38 59 C33.71 59 29.42 59 25 59 C24.505 46.625 24.505 46.625 24 34 C21.36 34 18.72 34 16 34 C13.43863779 36.56136221 13.70333143 37.66561331 13.5859375 41.2265625 C13.52792969 42.7734375 13.52792969 42.7734375 13.46875 44.3515625 C13.4378125 45.43179688 13.406875 46.51203125 13.375 47.625 C13.31699219 49.25695312 13.31699219 49.25695312 13.2578125 50.921875 C13.16334154 53.61429745 13.08057419 56.30712584 13 59 C8.71 59 4.42 59 0 59 C0 39.53 0 20.06 0 0 Z " fill="#120497" transform="translate(1194,153)"/>
<path d="M0 0 C4.44526766 2.65900414 7.10544755 6.5432743 9.12890625 11.2734375 C10.1531443 17.61293194 9.29894799 22.37297335 5.546875 27.5859375 C0.9638081 33.04016587 -3.79956582 34.9032986 -10.70703125 35.53125 C-17.30075008 35.78038295 -22.50781573 35.33011647 -27.87109375 31.2734375 C-32.2696252 27.06614655 -35.14220903 22.66988474 -35.30859375 16.5234375 C-35.17841706 10.99906414 -33.52890362 7.37821167 -29.87109375 3.2734375 C-21.14078755 -4.40617539 -10.39812731 -4.70669647 0 0 Z " fill="#140698" transform="translate(1098.87109375,177.7265625)"/>
<path d="M0 0 C3.63282133 2.79136605 6.70104632 6.24193639 8.75390625 10.34765625 C9.28126798 16.55429817 9.51638107 22.12873957 5.75390625 27.34765625 C0.98690951 32.34337253 -3.40860433 34.8953467 -10.39453125 35.71875 C-17.71555295 35.86942478 -22.72252976 35.37501355 -28.24609375 30.34765625 C-33.68515236 24.77228039 -34.60593873 21.00073976 -34.5234375 13.328125 C-34.01014082 7.81199304 -31.22366952 5.28272873 -27.37109375 1.59765625 C-19.55261963 -4.03164511 -8.48395269 -4.94159249 0 0 Z " fill="#110397" transform="translate(893.24609375,177.65234375)"/>
<path d="M0 0 C3.11647604 2.87948166 5.17719855 5.71895739 7.234375 9.421875 C7.80800781 10.44667969 8.38164062 11.47148437 8.97265625 12.52734375 C9.85244141 14.12255859 9.85244141 14.12255859 10.75 15.75 C11.35199219 16.82894531 11.95398438 17.90789062 12.57421875 19.01953125 C14.05549261 21.67641928 15.5304902 24.33659288 17 27 C17.81404297 25.96939453 17.81404297 25.96939453 18.64453125 24.91796875 C19.35996094 24.01691406 20.07539063 23.11585938 20.8125 22.1875 C21.52019531 21.29417969 22.22789062 20.40085938 22.95703125 19.48046875 C25 17 25 17 28 14 C27.67 21.92 27.34 29.84 27 38 C9.51 38 -7.98 38 -26 38 C-26.62414871 29.88606682 -27.14593679 22.0913841 -27 14 C-23.58059636 17.0394699 -21.42725009 20.38124906 -19.1484375 24.29296875 C-18.09866896 26.15586422 -18.09866896 26.15586422 -16 27 C-15.73195557 26.2790918 -15.46391113 25.55818359 -15.18774414 24.81542969 C-13.99868423 21.9968811 -12.61235014 19.54762237 -10.99609375 16.953125 C-10.13274414 15.56287109 -10.13274414 15.56287109 -9.25195312 14.14453125 C-8.65318359 13.18933594 -8.05441406 12.23414063 -7.4375 11.25 C-6.83486328 10.27933594 -6.23222656 9.30867187 -5.61132812 8.30859375 C-1.15258291 1.15258291 -1.15258291 1.15258291 0 0 Z " fill="#F8F8FC" transform="translate(196,225)"/>
<path d="M0 0 C5.20765971 3.22874902 9.63925715 7.84595433 11.125 13.9375 C11.125 16.5775 11.125 19.2175 11.125 21.9375 C2.215 21.9375 -6.695 21.9375 -15.875 21.9375 C-14.53936384 26.88213635 -14.53936384 26.88213635 -11.875 27.9375 C-6.54532792 28.27842041 -6.54532792 28.27842041 -1.875 25.9375 C1.04296875 25.7421875 1.04296875 25.7421875 4.3125 25.8125 C5.94251953 25.83957031 5.94251953 25.83957031 7.60546875 25.8671875 C8.85263672 25.90199219 8.85263672 25.90199219 10.125 25.9375 C8.41406367 30.77028698 6.3551734 32.95149524 2.125 35.9375 C-4.7284527 37.7597391 -12.84207215 38.28971127 -19.375 35.25 C-24.41604715 32.27975645 -26.99195023 28.40313174 -28.875 22.9375 C-29.77732335 15.82383453 -29.21554079 10.68578375 -24.875 4.9375 C-17.87600713 -1.5365684 -9.17330332 -3.32455288 0 0 Z " fill="#130598" transform="translate(586.875,176.0625)"/>
<path d="M0 0 C5.70687641 3.37922703 8.36575887 8.12320072 10.5 14.3125 C10.5 16.6225 10.5 18.9325 10.5 21.3125 C1.59 21.3125 -7.32 21.3125 -16.5 21.3125 C-15.04711014 25.8966963 -15.04711014 25.8966963 -13.5 27.3125 C-8.17326964 27.65106828 -8.17326964 27.65106828 -3.5 25.3125 C-0.36328125 25.1171875 -0.36328125 25.1171875 3.1875 25.1875 C4.36699219 25.20554688 5.54648438 25.22359375 6.76171875 25.2421875 C8.11716797 25.27699219 8.11716797 25.27699219 9.5 25.3125 C7.61245361 30.52695465 5.26237663 33.0015416 0.1953125 35.40625 C-6.35774533 37.60959698 -14.39441197 37.19564157 -20.74609375 34.4375 C-24.56953303 31.98504897 -27.47936231 28.35377538 -29.5 24.3125 C-30.43462979 12.36149609 -30.43462979 12.36149609 -27.875 6.75 C-20.13963043 -1.18893193 -10.86501709 -5.07443359 0 0 Z " fill="#130598" transform="translate(1176.5,176.6875)"/>
<path d="M0 0 C4.53919842 2.22833377 6.79270319 4.50009831 9 9 C9.34057617 12.13793945 9.34057617 12.13793945 9.29296875 15.61328125 C9.2784668 17.4840332 9.2784668 17.4840332 9.26367188 19.39257812 C9.23853516 20.68615234 9.21339844 21.97972656 9.1875 23.3125 C9.16719727 25.28186523 9.16719727 25.28186523 9.14648438 27.29101562 C9.11117706 30.5275195 9.05737168 33.76381206 9 37 C4.71 37 0.42 37 -4 37 C-4.04898438 35.36289063 -4.09796875 33.72578125 -4.1484375 32.0390625 C-4.22345639 29.901024 -4.2990046 27.76300402 -4.375 25.625 C-4.4059375 24.54476562 -4.436875 23.46453125 -4.46875 22.3515625 C-4.50742187 21.3203125 -4.54609375 20.2890625 -4.5859375 19.2265625 C-4.63306885 17.79691162 -4.63306885 17.79691162 -4.68115234 16.33837891 C-4.78555796 13.81104824 -4.78555796 13.81104824 -7 12 C-11.14509433 11.71397838 -11.14509433 11.71397838 -15 13 C-15.33 20.92 -15.66 28.84 -16 37 C-20.62 37 -25.24 37 -30 37 C-30 25.12 -30 13.24 -30 1 C-25.38 1 -20.76 1 -16 1 C-15.67 1.66 -15.34 2.32 -15 3 C-14.38125 2.505 -13.7625 2.01 -13.125 1.5 C-8.70727188 -0.6205095 -4.82033427 -0.69524052 0 0 Z " fill="#150899" transform="translate(939,175)"/>
<path d="M0 0 C4.62 0 9.24 0 14 0 C14 13.86 14 27.72 14 42 C19.61 42 25.22 42 31 42 C31 45.63 31 49.26 31 53 C20.77 53 10.54 53 0 53 C0 35.51 0 18.02 0 0 Z " fill="#120497" transform="translate(1029,159)"/>
<path d="M0 0 C4.62 0 9.24 0 14 0 C14 13.86 14 27.72 14 42 C19.28 42 24.56 42 30 42 C30 45.63 30 49.26 30 53 C20.1 53 10.2 53 0 53 C0 35.51 0 18.02 0 0 Z " fill="#100297" transform="translate(824,159)"/>
<path d="M0 0 C4.62 0 9.24 0 14 0 C14.17376678 6.1196459 14.30040804 12.23783909 14.38452148 18.359375 C14.41960318 20.43905672 14.46728314 22.51856727 14.52807617 24.59765625 C14.61353984 27.59678451 14.6528106 30.59362119 14.68359375 33.59375 C14.71972275 34.51490601 14.75585175 35.43606201 14.79307556 36.38513184 C14.79690856 42.76702998 13.19027945 45.90816084 8.739151 50.46936035 C4.65578581 54.06316023 0.63177541 54.44392952 -4.6484375 54.3203125 C-8.50679793 53.7947551 -11.92072253 52.39253213 -15 50 C-15.66 48.68 -16.32 47.36 -17 46 C-14.36 43.69 -11.72 41.38 -9 39 C-8.01 39.99 -7.02 40.98 -6 42 C-3.525 41.505 -3.525 41.505 -1 41 C-0.67 27.47 -0.34 13.94 0 0 Z " fill="#150899" transform="translate(535,159)"/>
<path d="M0 0 C4.62 0 9.24 0 14 0 C14 3.63 14 7.26 14 11 C16.31 11 18.62 11 21 11 C21 14.3 21 17.6 21 21 C18.69 21 16.38 21 14 21 C14 29.58 14 38.16 14 47 C9.38 47 4.76 47 0 47 C0 38.42 0 29.84 0 21 C-1.32 21 -2.64 21 -4 21 C-4 17.7 -4 14.4 -4 11 C-2.68 11 -1.36 11 0 11 C0 7.37 0 3.74 0 0 Z " fill="#1A0D9B" transform="translate(775,165)"/>
<path d="M0 0 C0.25741587 8.42441334 0.45156752 16.84712539 0.56993389 25.2745266 C0.62681144 29.18998626 0.7036329 33.10271425 0.82983398 37.01660156 C1.8346556 69.0052759 1.8346556 69.0052759 -8.32495117 82.27978516 C-9.64910034 83.6262915 -9.64910034 83.6262915 -11 85 C-11.99 85 -12.98 85 -14 85 C-15.38671875 83.5390625 -15.38671875 83.5390625 -16.6875 81.625 C-17.12449219 80.99851562 -17.56148437 80.37203125 -18.01171875 79.7265625 C-19 78 -19 78 -19 76 C-15.37 76 -11.74 76 -8 76 C-8.08564209 74.97229492 -8.17128418 73.94458984 -8.25952148 72.88574219 C-8.7882487 66.54101562 -9.31697591 60.19628906 -9.84570312 53.8515625 C-9.91211502 53.05477585 -9.97852692 52.2579892 -10.04695129 51.4370575 C-10.17945116 49.84674433 -10.311847 48.2564225 -10.44413757 46.66609192 C-10.73029543 43.22729621 -11.01794048 39.78865864 -11.30981445 36.3503418 C-11.39835693 35.30531494 -11.48689941 34.26028809 -11.578125 33.18359375 C-11.65321289 32.30501709 -11.72830078 31.42644043 -11.80566406 30.52124023 C-12.66273373 19.40194564 -11.71455027 12.11891699 -4.3125 3.4375 C-1.18323587 0 -1.18323587 0 0 0 Z " fill="#F9F9FC" transform="translate(191,149)"/>
<path d="M0 0 C4.62 0 9.24 0 14 0 C14 17.49 14 34.98 14 53 C9.38 53 4.76 53 0 53 C0 35.51 0 18.02 0 0 Z " fill="#120497" transform="translate(476,159)"/>
<path d="M0 0 C4.62 0 9.24 0 14 0 C14 17.49 14 34.98 14 53 C9.38 53 4.76 53 0 53 C0 35.51 0 18.02 0 0 Z " fill="#120497" transform="translate(451,159)"/>
<path d="M0 0 C4.29 0 8.58 0 13 0 C13.33 1.32 13.66 2.64 14 4 C14.845625 3.34 15.69125 2.68 16.5625 2 C20.43436947 -0.25272405 22.60278797 -0.35177696 27 0 C27 3.96 27 7.92 27 12 C25.5975 11.9175 24.195 11.835 22.75 11.75 C19.73069838 11.57239402 18.35119144 11.78538301 15.75 13.375 C13.04290647 17.43564029 13.32364072 21.47004795 13.25 26.25 C13.22035156 27.18585938 13.19070313 28.12171875 13.16015625 29.0859375 C13.08961871 31.39016382 13.04252608 33.69508655 13 36 C8.71 36 4.42 36 0 36 C0 24.12 0 12.24 0 0 Z " fill="#0E0196" transform="translate(1115,176)"/>
<path d="M0 0 C0.99 0.495 0.99 0.495 2 1 C3.24815566 36.75805956 3.24815566 36.75805956 -4 53 C-4.3103418 53.74121094 -4.62068359 54.48242188 -4.94042969 55.24609375 C-17.09864425 84.2473395 -39.4981548 103.63032915 -68.17578125 115.52734375 C-83.44499027 121.58099727 -100.86612096 122.606242 -117 120 C-117 119.34 -117 118.68 -117 118 C-116.37246826 117.9906543 -115.74493652 117.98130859 -115.09838867 117.97167969 C-85.83699213 117.42797581 -60.14738626 111.74661073 -37 93 C-36.34515625 92.49855469 -35.6903125 91.99710937 -35.015625 91.48046875 C-18.25539845 78.1414811 -7.47691812 56.5531241 -3 36 C-2.78601563 35.08605469 -2.57203125 34.17210937 -2.3515625 33.23046875 C-0.15608721 22.36445698 -0.32963605 11.04682774 0 0 Z " fill="#2316A0" transform="translate(301,168)"/>
<path d="M0 0 C-0.13984955 3.37527556 -0.28795269 6.75014131 -0.4375 10.125 C-0.47681641 11.07632813 -0.51613281 12.02765625 -0.55664062 13.0078125 C-0.77053023 17.74628987 -1.06561821 22.33594301 -2 27 C-6.16564295 25.52977307 -9.70957213 23.98434156 -13 21 C-14.20799549 16.94401514 -13.7985333 13.49955594 -11.81640625 9.77734375 C-4.78037383 0 -4.78037383 0 0 0 Z " fill="#EDECF7" transform="translate(132,173)"/>
<path d="M0 0 C4.4297642 0.79102932 5.89210172 1.98974785 8.5 5.625 C9.125 8.625 9.125 8.625 8.5 11.625 C5.89210172 15.26025215 4.4297642 16.45897068 0 17.25 C-4.4297642 16.45897068 -5.89210172 15.26025215 -8.5 11.625 C-9.125 8.625 -9.125 8.625 -8.5 5.625 C-5.89210172 1.98974785 -4.4297642 0.79102932 0 0 Z " fill="#F5F5FA" transform="translate(880.5,185.375)"/>
<path d="M0 0 C2.5 1.5 2.5 1.5 4 4 C4.791013 8.02098277 4.62153384 10.96411027 2.5 14.5 C-1.03588973 16.62153384 -3.97901723 16.791013 -8 16 C-10.5 14.5 -10.5 14.5 -12 12 C-12.791013 7.97901723 -12.62153384 5.03588973 -10.5 1.5 C-6.96411027 -0.62153384 -4.02098277 -0.791013 0 0 Z " fill="#F6F5FB" transform="translate(1090,186)"/>
<path d="M0 0 C3.38121991 2.44598887 4.76936783 3.89296559 5.625 8 C4.76936783 12.10703441 3.38121991 13.55401113 0 16 C-3.95779649 16.62491523 -6.00863886 16.61006839 -9.4375 14.5 C-11.63828902 10.97873756 -11.80414661 8.04560357 -11 4 C-8.16650967 -0.53358453 -5.10426635 -0.80593679 0 0 Z " fill="#F5F5FB" transform="translate(980,186)"/>
<path d="M0 0 C2.4375 1.0625 2.4375 1.0625 4 3 C4.56988508 6.91795996 4.59460908 9.07240983 2.4375 12.4375 C-0.98314143 14.63021887 -3.00951279 14.63007693 -7 14 C-10.1028186 11.68939041 -11.70086289 10.22646216 -12.625 6.4375 C-12 4 -12 4 -9.9375 1.6875 C-6.28433812 -0.41112491 -4.15533496 -0.52886081 0 0 Z " fill="#F6F5FB" transform="translate(699,187)"/>
<path d="M0 0 C2.49215888 0.76646507 3.54435464 1.59121457 5.12109375 3.65234375 C5.76575525 8.80963577 5.76575525 8.80963577 3.875 11.28125 C0.7120482 13.75384706 -2.96263453 13.87855439 -6.87890625 13.65234375 C-9.44140625 12.08984375 -9.44140625 12.08984375 -10.87890625 9.65234375 C-11.47712167 6.06305124 -11.29248936 4.35363685 -9.44140625 1.21484375 C-6.04667905 -0.85511186 -3.85198181 -0.47419 0 0 Z " fill="#F7F7FB" transform="translate(747.87890625,187.34765625)"/>
<path d="M0 0 C0.33 0 0.66 0 1 0 C1.01458252 0.6077124 1.02916504 1.2154248 1.04418945 1.84155273 C1.544901 20.62619752 3.13735152 36.69574596 10.4765625 54.07421875 C11.83041697 57.35251465 12.58741004 60.45953209 13 64 C12.01 64.495 12.01 64.495 11 65 C0.77948307 43.34341923 -2.55181507 24.85728385 -1 1 C-0.67 0.67 -0.34 0.34 0 0 Z " fill="#1F129F" transform="translate(92,169)"/>
<path d="M0 0 C0.66 0 1.32 0 2 0 C4.23413013 3.35119519 4.23847762 4.4177755 4.1953125 8.32421875 C4.18886719 9.35224609 4.18242187 10.38027344 4.17578125 11.43945312 C4.15902344 12.51130859 4.14226562 13.58316406 4.125 14.6875 C4.11597656 15.77095703 4.10695312 16.85441406 4.09765625 17.97070312 C4.0740734 20.6473571 4.04116126 23.32356797 4 26 C2.35 26.33 0.7 26.66 -1 27 C-0.67 18.09 -0.34 9.18 0 0 Z " fill="#E8E7F5" transform="translate(235,215)"/>
<path d="M0 0 C1.04736328 0.00902344 2.09472656 0.01804687 3.17382812 0.02734375 C5.72030514 0.05059925 8.26627031 0.08327431 10.8125 0.125 C10.8125 0.455 10.8125 0.785 10.8125 1.125 C9.63171875 1.17398438 8.4509375 1.22296875 7.234375 1.2734375 C5.67706063 1.34848879 4.11977009 1.42403561 2.5625 1.5 C1.78519531 1.5309375 1.00789063 1.561875 0.20703125 1.59375 C-0.54707031 1.63242188 -1.30117187 1.67109375 -2.078125 1.7109375 C-2.76938477 1.7423584 -3.46064453 1.7737793 -4.17285156 1.80615234 C-6.49210877 2.1732088 -8.10737221 3.05332743 -10.1875 4.125 C-11.63198653 4.51928374 -13.09114037 4.86252966 -14.55859375 5.16015625 C-15.38037109 5.32966797 -16.20214844 5.49917969 -17.04882812 5.67382812 C-17.89896484 5.84333984 -18.74910156 6.01285156 -19.625 6.1875 C-20.47126953 6.36087891 -21.31753906 6.53425781 -22.18945312 6.71289062 C-24.52100755 7.18942603 -26.85383823 7.65890979 -29.1875 8.125 C-30.20972656 8.32996094 -31.23195312 8.53492187 -32.28515625 8.74609375 C-32.91292969 8.87113281 -33.54070312 8.99617188 -34.1875 9.125 C-34.1875 8.465 -34.1875 7.805 -34.1875 7.125 C-34.8475 6.795 -35.5075 6.465 -36.1875 6.125 C-34.25280224 5.49137879 -32.31453261 4.86866349 -30.375 4.25 C-29.29605469 3.90195313 -28.21710938 3.55390625 -27.10546875 3.1953125 C-18.07307275 0.58859155 -9.37168467 -0.15629493 0 0 Z " fill="#3125A7" transform="translate(196.1875,74.875)"/>
<path d="M0 0 C0.33 0.66 0.66 1.32 1 2 C1.66 2 2.32 2 3 2 C2.8659375 2.66386719 2.731875 3.32773438 2.59375 4.01171875 C1.87902837 7.60883748 1.18465899 11.2095668 0.5 14.8125 C0.36980469 15.48603516 0.23960938 16.15957031 0.10546875 16.85351562 C-0.78533304 21.55496949 -1.44643557 26.24679775 -2 31 C-2.33 31 -2.66 31 -3 31 C-3.33 29.02 -3.66 27.04 -4 25 C-4.33 32.26 -4.66 39.52 -5 47 C-5.33 47 -5.66 47 -6 47 C-6.60690836 22.71432851 -6.60690836 22.71432851 -3 11 C-2.43403776 8.89676194 -1.87138406 6.79262998 -1.3125 4.6875 C-0.87764753 3.12426111 -0.44121291 1.56145562 0 0 Z " fill="#3024A6" transform="translate(96,145)"/>
<path d="M0 0 C2.375 1.75 2.375 1.75 4 4 C4 5.32 4 6.64 4 8 C-0.62 8 -5.24 8 -10 8 C-9 3 -9 3 -7.8125 1.1875 C-5.06937448 -0.60972017 -3.20418874 -0.45774125 0 0 Z " fill="#F3F2F9" transform="translate(1170,183)"/>
<path d="M0 0 C3.4375 0.75 3.4375 0.75 5.4375 2.75 C5.7675 4.4 6.0975 6.05 6.4375 7.75 C1.4875 7.75 -3.4625 7.75 -8.5625 7.75 C-5.8425 -0.41 -5.8425 -0.41 0 0 Z " fill="#F4F4FA" transform="translate(579.5625,183.25)"/>
<path d="M0 0 C0.66 0 1.32 0 2 0 C6.17020131 10.23594866 7.29919891 19.59686915 7.125 30.625 C7.11597656 31.72457031 7.10695313 32.82414062 7.09765625 33.95703125 C7.07434124 36.63825758 7.0416204 39.31900607 7 42 C6.67 42 6.34 42 6 42 C5.67 34.41 5.34 26.82 5 19 C4.34 19.33 3.68 19.66 3 20 C2.49550598 17.41747107 1.99625699 14.83411297 1.5 12.25 C1.35691406 11.52039063 1.21382813 10.79078125 1.06640625 10.0390625 C0.41111121 6.60656468 0 3.50830509 0 0 Z " fill="#20149F" transform="translate(297,150)"/>
<path d="M0 0 C0.66 1.32 1.32 2.64 2 4 C-0.97 8.455 -0.97 8.455 -4 13 C-7.66186662 9.62722811 -9.08905121 7.77737198 -11 3 C-7.37 3 -3.74 3 0 3 C0 2.01 0 1.02 0 0 Z " fill="#E2E0F2" transform="translate(183,222)"/>
<path d="M0 0 C2.68763267 0.31139051 5.37510369 0.62408157 8.0625 0.9375 C9.19075195 1.06801758 9.19075195 1.06801758 10.34179688 1.20117188 C14.90588219 1.73463639 19.45393534 2.32986298 24 3 C24 3.33 24 3.66 24 4 C22.35 4 20.7 4 19 4 C19 4.66 19 5.32 19 6 C21.31 6 23.62 6 26 6 C26 6.33 26 6.66 26 7 C20.16601233 7.20320631 15.24425696 6.58591957 9.625 5.0625 C8.91472656 4.88009766 8.20445312 4.69769531 7.47265625 4.50976562 C2.34250992 3.17125496 2.34250992 3.17125496 0 2 C0 1.34 0 0.68 0 0 Z " fill="#1E129F" transform="translate(165,282)"/>
<path d="M0 0 C8.91 0 17.82 0 27 0 C27 0.66 27 1.32 27 2 C22.83066916 3.0063902 18.90734266 3.13368629 14.625 3.125 C13.35914063 3.12757813 12.09328125 3.13015625 10.7890625 3.1328125 C7.09035208 3.00316698 3.64562057 2.59347312 0 2 C0 1.34 0 0.68 0 0 Z " fill="#170A9B" transform="translate(184,286)"/>
<path d="M0 0 C1.02802734 0.00322266 2.05605469 0.00644531 3.11523438 0.00976562 C4.72301758 0.02233398 4.72301758 0.02233398 6.36328125 0.03515625 C7.44673828 0.03966797 8.53019531 0.04417969 9.64648438 0.04882812 C12.3229721 0.06061882 14.99934902 0.07707562 17.67578125 0.09765625 C17.67578125 0.42765625 17.67578125 0.75765625 17.67578125 1.09765625 C16.495 1.14664063 15.31421875 1.195625 14.09765625 1.24609375 C12.54034188 1.32114504 10.98305134 1.39669186 9.42578125 1.47265625 C8.64847656 1.50359375 7.87117188 1.53453125 7.0703125 1.56640625 C3.06550809 1.77178084 0.20821123 2.06977978 -3.32421875 4.09765625 C-5.65625687 4.17539085 -7.99260934 4.18733353 -10.32421875 4.09765625 C-7.42244869 -0.25499884 -4.90242519 -0.02708522 0 0 Z " fill="#4137AD" transform="translate(189.32421875,74.90234375)"/>
<path d="M0 0 C0 4.91075921 -3.69530187 7.60955122 -7 11 C-8.94602014 12.76450416 -10.92714711 14.3821636 -13 16 C-13.66 15.67 -14.32 15.34 -15 15 C-10.28109462 9.59947495 -5.69641143 4.38185495 0 0 Z " fill="#1E119E" transform="translate(278,249)"/>
<path d="M0 0 C0.66 0.66 1.32 1.32 2 2 C2.66 1.34 3.32 0.68 4 0 C3.67 3.96 3.34 7.92 3 12 C2.67 12 2.34 12 2 12 C1.67 10.02 1.34 8.04 1 6 C0.67 13.26 0.34 20.52 0 28 C-0.33 28 -0.66 28 -1 28 C-1.02912348 24.27084983 -1.04684037 20.5417291 -1.0625 16.8125 C-1.07087891 15.75740234 -1.07925781 14.70230469 -1.08789062 13.61523438 C-1.09111328 12.59365234 -1.09433594 11.57207031 -1.09765625 10.51953125 C-1.10289307 9.58214111 -1.10812988 8.64475098 -1.11352539 7.67895508 C-1.00082657 5.01950523 -0.59376649 2.59079427 0 0 Z " fill="#6057BA" transform="translate(91,164)"/>
<path d="M0 0 C-2.98418329 3.32851213 -5.84562769 5.3205729 -10 7 C-10.99 6.67 -11.98 6.34 -13 6 C-4.36708861 -1.4556962 -4.36708861 -1.4556962 0 0 Z " fill="#2519A1" transform="translate(255,271)"/>
<path d="M0 0 C0.33 0 0.66 0 1 0 C1.8410478 3.6464806 2.11764968 6.99950907 2.09765625 10.73828125 C2.09443359 11.80498047 2.09121094 12.87167969 2.08789062 13.97070312 C2.07951172 15.07349609 2.07113281 16.17628906 2.0625 17.3125 C2.05798828 18.43462891 2.05347656 19.55675781 2.04882812 20.71289062 C2.03707313 23.4753151 2.02064077 26.23762998 2 29 C1.67 29 1.34 29 1 29 C0.67 21.41 0.34 13.82 0 6 C-0.99 6.495 -0.99 6.495 -2 7 C-1.125 2.25 -1.125 2.25 0 0 Z " fill="#453AAE" transform="translate(302,163)"/>
<path d="M0 0 C0.33 0 0.66 0 1 0 C1 1.98 1 3.96 1 6 C1.66 6 2.32 6 3 6 C2.75 9.3125 2.75 9.3125 2 13 C0.68 13.99 -0.64 14.98 -2 16 C-1.34 10.72 -0.68 5.44 0 0 Z " fill="#3D32AC" transform="translate(300,192)"/>
<path d="M0 0 C0.99 0 1.98 0 3 0 C6 6.625 6 6.625 6 10 C5.34 10 4.68 10 4 10 C3.67 10.99 3.34 11.98 3 13 C2.49487756 11.39743892 1.99608373 9.79288208 1.5 8.1875 C1.2215625 7.29417969 0.943125 6.40085938 0.65625 5.48046875 C0 3 0 3 0 0 Z " fill="#3024A6" transform="translate(293,140)"/>
<path d="M0 0 C0.33 0.99 0.66 1.98 1 3 C-3.455 3.495 -3.455 3.495 -8 4 C-8 3.34 -8 2.68 -8 2 C-8.99 1.67 -9.98 1.34 -11 1 C-7.26562152 0.12132271 -3.83225427 -0.08912219 0 0 Z " fill="#3A2EAA" transform="translate(219,284)"/>
<path d="M0 0 C2 2 2 2 2.1953125 4.6015625 C2.17210938 5.59929687 2.14890625 6.59703125 2.125 7.625 C2.10695313 8.62789062 2.08890625 9.63078125 2.0703125 10.6640625 C2.03550781 11.82035156 2.03550781 11.82035156 2 13 C1.67 12.34 1.34 11.68 1 11 C0.34 11 -0.32 11 -1 11 C-1.0270043 9.54176788 -1.04639787 8.08339325 -1.0625 6.625 C-1.07410156 5.81289062 -1.08570312 5.00078125 -1.09765625 4.1640625 C-1 2 -1 2 0 0 Z " fill="#2619A2" transform="translate(92,190)"/>
<path d="M0 0 C3.63 0.33 7.26 0.66 11 1 C11 1.33 11 1.66 11 2 C9.35 2 7.7 2 6 2 C6 2.66 6 3.32 6 4 C8.31 4 10.62 4 13 4 C13 4.33 13 4.66 13 5 C8.1666528 5.08333357 3.76307437 4.95261487 -1 4 C0.32 3.67 1.64 3.34 3 3 C3 2.34 3 1.68 3 1 C2.01 0.67 1.02 0.34 0 0 Z " fill="#645BBB" transform="translate(178,284)"/>
<path d="M0 0 C0.33 0.99 0.66 1.98 1 3 C0.443125 3.4125 -0.11375 3.825 -0.6875 4.25 C-3.16195956 6.12256399 -5.5835229 8.05339344 -8 10 C-8.66 9.67 -9.32 9.34 -10 9 C-6.7 6.03 -3.4 3.06 0 0 Z " fill="#2F23A6" transform="translate(282,244)"/>
<path d="M0 0 C0.33 0 0.66 0 1 0 C1.33 3.3 1.66 6.6 2 10 C1.01 10.33 0.02 10.66 -1 11 C-2.23076923 4.6 -2.23076923 4.6 -1.0625 1.5625 C-0.711875 1.046875 -0.36125 0.53125 0 0 Z " fill="#4238AD" transform="translate(94,197)"/>
<path d="M0 0 C0.66 0.33 1.32 0.66 2 1 C0.9024777 3.99324263 0.32317108 4.84610901 -2.625 6.25 C-3.40875 6.4975 -4.1925 6.745 -5 7 C-5.33 6.01 -5.66 5.02 -6 4 C-4.02 2.68 -2.04 1.36 0 0 Z " fill="#2D21A5" transform="translate(143,89)"/>
<path d="M0 0 C0.66 0.33 1.32 0.66 2 1 C-3.28571429 7.42857143 -3.28571429 7.42857143 -6 10 C-6 6.41087588 -5.33563446 5.89142971 -3 3.3125 C-2.443125 2.68988281 -1.88625 2.06726563 -1.3125 1.42578125 C-0.879375 0.95527344 -0.44625 0.48476563 0 0 Z " fill="#2F23A6" transform="translate(267,258)"/>
<path d="M0 0 C1.65 0 3.3 0 5 0 C4.67 0.66 4.34 1.32 4 2 C4.66 2.66 5.32 3.32 6 4 C2.7 3.67 -0.6 3.34 -4 3 C-2.68 2.67 -1.36 2.34 0 2 C0 1.34 0 0.68 0 0 Z " fill="#4B40B1" transform="translate(216,77)"/>
<path d="M0 0 C0.33 0 0.66 0 1 0 C0.67 2.97 0.34 5.94 0 9 C-0.66 8.67 -1.32 8.34 -2 8 C-1.125 1.125 -1.125 1.125 0 0 Z " fill="#16099C" transform="translate(94,158)"/>
<path d="M0 0 C2.31 0.33 4.62 0.66 7 1 C7.33 1.99 7.66 2.98 8 4 C4.31245243 3.50168276 2.39509338 2.89932357 0 0 Z " fill="#15079A" transform="translate(219,78)"/>
<path d="M0 0 C0.99 0.33 1.98 0.66 3 1 C1.68 2.32 0.36 3.64 -1 5 C-1.99 4.67 -2.98 4.34 -4 4 C-2.68 2.68 -1.36 1.36 0 0 Z " fill="#1B0E9D" transform="translate(246,273)"/>
<path d="M0 0 C1 3 1 3 0.0625 5.1875 C-0.4634375 6.0846875 -0.4634375 6.0846875 -1 7 C-1.66 7 -2.32 7 -3 7 C-2.625 4.0625 -2.625 4.0625 -2 1 C-1.34 0.67 -0.68 0.34 0 0 Z " fill="#16099B" transform="translate(296,218)"/>
<path d="M0 0 C0.33 0.66 0.66 1.32 1 2 C1.66 2 2.32 2 3 2 C2.67 3.65 2.34 5.3 2 7 C1.01 7 0.02 7 -1 7 C-0.67 4.69 -0.34 2.38 0 0 Z " fill="#2F23A6" transform="translate(296,212)"/>
<path d="M0 0 C1 3 1 3 0.0625 5.1875 C-0.4634375 6.0846875 -0.4634375 6.0846875 -1 7 C-1.66 7 -2.32 7 -3 7 C-2.25 2.25 -2.25 2.25 0 0 Z " fill="#180B9C" transform="translate(100,140)"/>
<path d="M0 0 C1.32 0 2.64 0 4 0 C3.67 0.99 3.34 1.98 3 3 C1.02 3.33 -0.96 3.66 -3 4 C-1.75 2 -1.75 2 0 0 Z " fill="#180B9C" transform="translate(158,82)"/>
</svg>
