<?xml version="1.0" encoding="UTF-8"?>
<svg version="1.1" xmlns="http://www.w3.org/2000/svg" width="300" height="300">
<path d="M0 0 C1.1859375 0.00257812 2.371875 0.00515625 3.59375 0.0078125 C4.7796875 0.00523438 5.965625 0.00265625 7.1875 0 C10.09375 0.1328125 10.09375 0.1328125 11.09375 1.1328125 C11.18240208 4.0171507 11.20896296 6.87743408 11.19140625 9.76171875 C11.1899913 10.62594955 11.18857635 11.49018036 11.18711853 12.38059998 C11.18150239 15.15220542 11.16894719 17.9237313 11.15625 20.6953125 C11.15123708 22.5696603 11.14667381 24.44400935 11.14257812 26.31835938 C11.13237681 30.92323271 11.11280467 35.5279331 11.09375 40.1328125 C22.31375 40.1328125 33.53375 40.1328125 45.09375 40.1328125 C45.09375 44.7528125 45.09375 49.3728125 45.09375 54.1328125 C33.87375 54.1328125 22.65375 54.1328125 11.09375 54.1328125 C11.42375 72.2828125 11.75375 90.4328125 12.09375 109.1328125 C14.40375 103.8528125 16.71375 98.5728125 19.09375 93.1328125 C24.34994835 84.50471333 24.34994835 84.50471333 27.09375 83.1328125 C29.33830077 82.99961191 31.58680303 82.93153305 33.83496094 82.89233398 C34.52787231 82.87933762 35.22078369 82.86634125 35.93469238 82.85295105 C43.1813744 82.7262237 50.42921696 82.6694908 57.67675781 82.61791992 C61.11491125 82.59117114 64.55167891 82.54244015 67.98925781 82.47436523 C72.14144288 82.39235048 76.29230804 82.34972733 80.44525909 82.33485603 C82.02580626 82.32261835 83.60631051 82.29660752 85.18639374 82.25640678 C97.54033645 81.95784938 97.54033645 81.95784938 101.36103821 84.84773254 C102.92567994 86.89081175 104.03033596 88.79643566 105.09375 91.1328125 C105.75761719 92.27363281 106.42148438 93.41445312 107.10546875 94.58984375 C112.50529125 105.40207575 117.4896752 116.50632734 114.4375 128.76953125 C112.3438473 134.80683148 109.65107003 138.89185353 104.09375 142.1328125 C97.62179681 145.11919415 90.93892859 147.19256914 84.09375 149.1328125 C77.98268529 150.96097179 75.36857162 152.72058006 71.84375 158.0078125 C69.73374095 163.98617148 69.8253808 170.61098297 69.71875 176.8828125 C69.68136719 177.73230469 69.64398438 178.58179688 69.60546875 179.45703125 C69.57244044 181.78002235 69.61700133 183.85895392 70.09375 186.1328125 C73.51816561 189.40216023 77.78318962 189.88958866 82.34375 190.7578125 C89.00377571 192.04283821 89.00377571 192.04283821 90.09375 193.1328125 C90.09375 196.7628125 90.09375 200.3928125 90.09375 204.1328125 C76.89375 204.4628125 63.69375 204.7928125 50.09375 205.1328125 C49.76375 211.0728125 49.43375 217.0128125 49.09375 223.1328125 C48.43375 224.7828125 47.77375 226.4328125 47.09375 228.1328125 C18.38375 228.1328125 -10.32625 228.1328125 -39.90625 228.1328125 C-41.66544037 224.61443176 -42.17846659 223.28012474 -42.40869141 219.59887695 C-42.4985582 218.26147209 -42.4985582 218.26147209 -42.59024048 216.89704895 C-42.64553925 215.93973373 -42.70083801 214.98241852 -42.7578125 213.99609375 C-42.85344986 212.50507393 -42.85344986 212.50507393 -42.95101929 210.9839325 C-43.08435267 208.88024753 -43.2135325 206.7762958 -43.33886719 204.67211914 C-43.52953057 201.47415223 -43.73233541 198.27714417 -43.9375 195.08007812 C-44.06582139 193.0312948 -44.19344768 190.98246779 -44.3203125 188.93359375 C-44.37965973 187.98639969 -44.43900696 187.03920563 -44.50015259 186.06330872 C-44.55375946 185.15594467 -44.60736633 184.24858063 -44.66259766 183.3137207 C-44.73349106 182.1360186 -44.73349106 182.1360186 -44.80581665 180.93452454 C-44.94675042 177.0030033 -44.90625 173.06685896 -44.90625 169.1328125 C-57.44625 169.1328125 -69.98625 169.1328125 -82.90625 169.1328125 C-82.90625 162.13073667 -82.80217708 155.96425648 -81.90625 149.1328125 C-82.45152344 148.98585937 -82.99679688 148.83890625 -83.55859375 148.6875 C-92.32785201 146.0792078 -99.66980591 141.74945845 -104.90625 134.1328125 C-108.09927572 127.89189859 -106.90913013 121.12620869 -105.2578125 114.55078125 C-100.62457522 101.05488367 -88.44439796 92.58708407 -76.13452148 86.52709961 C-68.9285334 83.41484082 -61.38099447 81.19137695 -53.90625 78.8203125 C-52.119393 78.2476336 -50.33269155 77.67446916 -48.54614258 77.10083008 C-43.33690503 75.43191303 -38.12227325 73.78037715 -32.90625 72.1328125 C-31.45491517 71.6731777 -30.00358052 71.21354232 -28.55224609 70.75390625 C-24.90236023 69.59986534 -21.24895754 68.45739989 -17.59375 67.3203125 C-16.53478516 66.98926514 -15.47582031 66.65821777 -14.38476562 66.31713867 C-13.42634766 66.02299072 -12.46792969 65.72884277 -11.48046875 65.42578125 C-10.66151123 65.1733667 -9.84255371 64.92095215 -8.9987793 64.66088867 C-6.90625 64.1328125 -6.90625 64.1328125 -3.90625 64.1328125 C-3.90625 60.8328125 -3.90625 57.5328125 -3.90625 54.1328125 C-15.12625 54.1328125 -26.34625 54.1328125 -37.90625 54.1328125 C-37.90625 49.5128125 -37.90625 44.8928125 -37.90625 40.1328125 C-26.68625 40.1328125 -15.46625 40.1328125 -3.90625 40.1328125 C-3.91785156 37.32910156 -3.92945313 34.52539062 -3.94140625 31.63671875 C-3.94919633 28.93286248 -3.95527337 26.22900744 -3.96118164 23.52514648 C-3.96622244 21.6403752 -3.97305498 19.75560785 -3.98168945 17.87084961 C-3.99376617 15.16779614 -3.99948068 12.46479419 -4.00390625 9.76171875 C-4.00906754 8.91380264 -4.01422882 8.06588654 -4.01954651 7.192276 C-4.01974195 5.17210182 -3.96831211 3.15203316 -3.90625 1.1328125 C-2.90625 0.1328125 -2.90625 0.1328125 0 0 Z M-6.39453125 75.6015625 C-14.21039862 84.30445551 -17.10470693 91.43134272 -17.09375 103.11328125 C-17.09294434 104.02724167 -17.09213867 104.94120209 -17.09130859 105.88285828 C-16.98478287 118.43807619 -15.90172616 130.93588516 -14.90625 143.4453125 C-14.71280935 145.95111545 -14.52009667 148.45697471 -14.328125 150.96289062 C-13.86252991 157.02020397 -13.38805727 163.07676823 -12.90625 169.1328125 C-7.39342367 164.43670118 -4.26059085 159.39599265 -3.47494507 152.16085815 C-3.26332392 147.21207631 -3.34335499 142.2675554 -3.41796875 137.31640625 C-3.42730702 135.49081902 -3.43441834 133.66521917 -3.43940735 131.83961487 C-3.45839747 127.06030003 -3.50742827 122.28175829 -3.56292725 117.50274658 C-3.61429311 112.6158697 -3.63695824 107.72886654 -3.66210938 102.84179688 C-3.71555569 93.2717978 -3.80077042 83.70236972 -3.90625 74.1328125 C-5.13612012 74.01574233 -5.13612012 74.01574233 -6.39453125 75.6015625 Z M-37.12890625 86.46875 C-37.8301915 86.70816315 -38.53147675 86.94757629 -39.25401306 87.19424438 C-40.73499694 87.70139974 -42.21516949 88.21092965 -43.69458008 88.72265625 C-45.96112009 89.50517828 -48.23127575 90.27645343 -50.50195312 91.046875 C-51.94033681 91.54098995 -53.37849579 92.03575962 -54.81640625 92.53125 C-55.83674706 92.8766835 -55.83674706 92.8766835 -56.87770081 93.22909546 C-59.76670935 94.23698192 -61.71359421 94.94015671 -63.90625 97.1328125 C-64.28031966 99.54821763 -64.53956126 101.87745497 -64.72265625 104.30859375 C-64.78404282 105.02959763 -64.84542938 105.7506015 -64.90867615 106.49345398 C-65.10385209 108.81012524 -65.28642537 111.127598 -65.46875 113.4453125 C-65.59488377 114.96426097 -65.72182835 116.48314234 -65.84960938 118.00195312 C-66.15778854 121.69183739 -66.45328698 125.38258813 -66.74325562 129.07394409 C-66.89698913 131.01583349 -67.05634681 132.95727527 -67.21606445 134.89868164 C-67.64958275 140.25843969 -68.03359158 145.56346153 -67.96875 150.9453125 C-67.948125 152.6571875 -67.9275 154.3690625 -67.90625 156.1328125 C-60.64625 156.1328125 -53.38625 156.1328125 -45.90625 156.1328125 C-45.90625 150.94223491 -45.925747 147.03532748 -46.90625 142.1328125 C-43.55895622 145.18475683 -41.36022747 148.00847219 -39.09375 151.9453125 C-37.09939484 155.22221313 -37.09939484 155.22221313 -33.74609375 156.7109375 C-31.28465231 156.74760385 -31.28465231 156.74760385 -27.90625 156.1328125 C-26.95260812 153.27188685 -26.84077127 152.00221915 -27.06811523 149.09887695 C-27.12825302 148.28985428 -27.18839081 147.4808316 -27.25035095 146.64729309 C-27.32113358 145.77239731 -27.3919162 144.89750153 -27.46484375 143.99609375 C-27.53284683 143.08385544 -27.60084991 142.17161713 -27.6709137 141.23173523 C-27.96155042 137.33600033 -28.266148 133.44138659 -28.56958008 129.54663086 C-31.245504 94.87763193 -31.245504 94.87763193 -26.90625 84.1328125 C-30.6201623 84.1328125 -33.66328555 85.27128435 -37.12890625 86.46875 Z M33.09375 96.1328125 C32.11815792 97.99706272 31.15270632 99.8666213 30.19140625 101.73828125 C29.65265869 102.77879639 29.11391113 103.81931152 28.55883789 104.89135742 C25.90002934 110.77387718 23.78520936 117.7747908 26.15625 124.0703125 C31.52454469 132.55568153 38.23588961 135.61032412 47.71875 137.8828125 C62.41535569 140.72832552 79.71512079 140.03066206 93.1015625 132.59375 C97.17604797 129.60579399 99.49445341 125.93070226 101.09375 121.1328125 C101.71926344 114.12706192 100.05925413 108.48484913 97.09375 102.1328125 C96.68640625 101.09898437 96.2790625 100.06515625 95.859375 99 C92.57378353 95.59375121 91.70735766 95.66846171 87.13183594 95.45166016 C84.61373245 95.45261038 82.09550541 95.48652617 79.578125 95.546875 C78.23864646 95.55807135 76.89914328 95.56660947 75.55963135 95.57260132 C72.04084959 95.59546682 68.52356348 95.65436513 65.00537109 95.7208252 C61.41264073 95.78230008 57.81966767 95.80962711 54.2265625 95.83984375 C47.18168125 95.90411442 40.13781347 96.00646287 33.09375 96.1328125 Z M-87.55078125 110.62109375 C-91.52997479 114.86424706 -92.50784099 118.59295507 -93.40625 124.3203125 C-92.70495803 128.26507981 -90.95997985 129.62196796 -87.90625 132.1328125 C-84.66963106 134.46365971 -84.66963106 134.46365971 -80.90625 135.1328125 C-79.82237537 131.88118862 -79.60312985 129.13350891 -79.37109375 125.71484375 C-79.28408203 124.46123047 -79.19707031 123.20761719 -79.10742188 121.91601562 C-79.02041016 120.60568359 -78.93339844 119.29535156 -78.84375 117.9453125 C-78.7523125 116.61000138 -78.66051975 115.27471454 -78.56835938 113.93945312 C-78.3441554 110.67079523 -78.12360074 107.4019321 -77.90625 104.1328125 C-81.86143758 104.1328125 -84.77724978 108.07168604 -87.55078125 110.62109375 Z M11.09375 128.1328125 C9.29854417 147.46154938 11.16796839 160.54587208 22.44628906 176.55761719 C24.19571512 178.59353031 24.19571512 178.59353031 28.09375 178.1328125 C29.88646081 176.29281757 29.88646081 176.29281757 31.40625 173.78515625 C32.00695312 172.86927734 32.60765625 171.95339844 33.2265625 171.00976562 C33.84273437 170.03974609 34.45890625 169.06972656 35.09375 168.0703125 C35.70992187 167.12736328 36.32609375 166.18441406 36.9609375 165.21289062 C40.16998231 160.27192571 43.23567619 155.28449054 46.09375 150.1328125 C40.08775763 147.45917719 33.99640105 145.45983734 27.71484375 143.51171875 C24.07533146 142.12579875 21.28262991 140.33833737 18.09375 138.1328125 C17.43375 138.1328125 16.77375 138.1328125 16.09375 138.1328125 C14.76041667 134.79947917 13.42708333 131.46614583 12.09375 128.1328125 C11.76375 128.1328125 11.43375 128.1328125 11.09375 128.1328125 Z M53.09375 157.1328125 C52.13172701 161.320442 51.77903627 165.47981055 51.53125 169.7578125 C51.4887915 170.45841797 51.44633301 171.15902344 51.40258789 171.88085938 C51.07556858 177.63429361 50.98387342 183.37039645 51.09375 189.1328125 C53.63119315 188.58572523 53.63119315 188.58572523 56.09375 187.1328125 C57.72995232 182.16275192 57.07299988 176.73788235 56.78125 171.5703125 C56.74580078 170.73306641 56.71035156 169.89582031 56.67382812 169.03320312 C56.4430629 164.68310651 56.0802017 161.09760794 54.09375 157.1328125 C53.76375 157.1328125 53.43375 157.1328125 53.09375 157.1328125 Z M3.09375 168.1328125 C2.51258423 169.09151245 2.51258423 169.09151245 1.91967773 170.06958008 C0.1247647 173.02890526 -1.67198439 175.98711178 -3.46875 178.9453125 C-4.38237305 180.45254883 -4.38237305 180.45254883 -5.31445312 181.99023438 C-9.42806281 188.75919 -13.62692604 195.46740135 -17.90625 202.1328125 C-21.92806585 198.46586276 -24.76230594 194.52260042 -27.671875 189.92578125 C-28.07921875 189.33410156 -28.4865625 188.74242187 -28.90625 188.1328125 C-29.23625 188.1328125 -29.56625 188.1328125 -29.90625 188.1328125 C-30.02175892 196.80881616 -30.12785473 205.52125324 -28.90625 214.1328125 C-27.11528955 215.92377295 -24.44292215 215.26048041 -22.02539062 215.26220703 C-20.76738647 215.26535919 -19.50938232 215.26851135 -18.21325684 215.27175903 C-16.82967087 215.26996925 -15.44608522 215.2679183 -14.0625 215.265625 C-12.65384911 215.26629809 -11.24519834 215.26726815 -9.83654785 215.26852417 C-6.88076677 215.27000092 -3.92501586 215.26784733 -0.96923828 215.26318359 C2.82749584 215.25748631 6.62415928 215.26076543 10.42089081 215.26675606 C13.33071428 215.27036229 16.24052088 215.2692228 19.15034485 215.26662827 C20.550644 215.26595917 21.95094467 215.26678682 23.35124207 215.26910782 C25.30512464 215.27163533 27.25901255 215.26710283 29.21289062 215.26220703 C30.32684204 215.26141144 31.44079346 215.26061584 32.58850098 215.25979614 C35.03352461 215.41650622 35.03352461 215.41650622 36.09375 214.1328125 C36.16836769 212.65538221 36.17701834 211.17448008 36.15625 209.6953125 C36.14464844 208.35339844 36.14464844 208.35339844 36.1328125 206.984375 C36.11347656 205.57285156 36.11347656 205.57285156 36.09375 204.1328125 C36.06835124 202.27870275 36.04728067 200.42452691 36.03125 198.5703125 C36.01964844 197.74402344 36.00804687 196.91773438 35.99609375 196.06640625 C36.09375 194.1328125 36.09375 194.1328125 37.09375 193.1328125 C37.13455783 191.13322886 37.13629356 189.13235996 37.09375 187.1328125 C33.91983332 190.13516612 31.38122399 193.33034892 28.84375 196.8828125 C27.78414062 198.36007813 27.78414062 198.36007813 26.703125 199.8671875 C26.17203125 200.61484375 25.6409375 201.3625 25.09375 202.1328125 C22.20541112 199.5774692 20.54539748 196.67236552 18.66015625 193.328125 C18.01111328 192.18730469 17.36207031 191.04648438 16.69335938 189.87109375 C16.01380588 188.66695831 15.33477378 187.46252848 14.65625 186.2578125 C13.3292486 183.90330101 11.99638431 181.55244966 10.66015625 179.203125 C10.07177979 178.15914551 9.48340332 177.11516602 8.87719727 176.03955078 C7.13644009 173.20239063 5.22963213 170.68155164 3.09375 168.1328125 Z M-25.90625 169.1328125 C-24.12364173 172.69802904 -22.14632711 175.84736607 -19.90625 179.1328125 C-15.47945993 177.65721581 -14.99192304 175.23223882 -12.90625 171.1328125 C-12.90625 170.4728125 -12.90625 169.8128125 -12.90625 169.1328125 C-17.19625 169.1328125 -21.48625 169.1328125 -25.90625 169.1328125 Z M-30.90625 186.1328125 C-29.90625 188.1328125 -29.90625 188.1328125 -29.90625 188.1328125 Z " fill="#0D0095" transform="translate(145.90625,35.8671875)"/>
<path d="M0 0 C1.17156143 0.00406357 1.17156143 0.00406357 2.36679077 0.00820923 C15.0101872 0.07445903 27.0184879 1.02610595 39.25 4.4375 C41.15845703 4.94603516 41.15845703 4.94603516 43.10546875 5.46484375 C79.83891557 16.52818625 112.09813909 42.6903772 130.4453125 76.390625 C148.82045842 111.38680839 153.82061384 152.35863407 142.25 190.4375 C129.82521628 228.72445996 104.2910202 260.23642599 68.6484375 279.26953125 C33.06212347 297.35584783 -7.75399953 300.08800866 -45.75 288.4375 C-83.43819599 275.88927127 -113.95040458 249.05423845 -132.22827148 214.02075195 C-135.38787327 207.62747006 -137.89079928 201.05946045 -140.1875 194.3125 C-140.50557617 193.38429443 -140.82365234 192.45608887 -141.15136719 191.49975586 C-145.79698359 177.05908982 -147.3129982 162.76927675 -147.1875 147.6875 C-147.18445862 146.90579437 -147.18141724 146.12408875 -147.17828369 145.31869507 C-146.94350526 104.35507597 -130.22083433 68.43800393 -101.32080078 39.63964844 C-74.3583255 13.55895578 -37.2385407 -0.30545858 0 0 Z M-80.75 34.4375 C-81.52601562 34.99179687 -82.30203125 35.54609375 -83.1015625 36.1171875 C-97.35097759 46.83999149 -109.6120722 60.15190126 -118.75 75.4375 C-119.35231445 76.43402588 -119.35231445 76.43402588 -119.96679688 77.45068359 C-129.46911693 93.45600955 -135.12924309 111.0502695 -137.75 129.4375 C-137.88019531 130.31019531 -138.01039063 131.18289062 -138.14453125 132.08203125 C-142.34160685 165.82651908 -132.58676597 202.55712968 -112.00390625 229.625 C-87.29860882 260.45310078 -55.26156633 281.10730317 -15.44921875 286 C20.8845303 289.7995072 56.74048128 279.94494944 85.5 257.4375 C87.09424114 256.11722828 88.67763785 254.78375387 90.25 253.4375 C91.08144531 252.72851562 91.91289062 252.01953125 92.76953125 251.2890625 C102.84307379 242.46891004 111.02747909 232.68846669 118.25 221.4375 C118.930625 220.38046875 119.61125 219.3234375 120.3125 218.234375 C139.69633933 186.28132735 143.50518139 148.23877244 135.32421875 112.21875 C126.68621764 77.68729264 103.57601954 48.27173642 73.9375 29.25 C57.16736656 19.34589946 38.69538897 11.86030736 19.25 9.4375 C18.41210938 9.32792969 17.57421875 9.21835938 16.7109375 9.10546875 C-17.51243803 5.31969712 -52.97688644 13.83702237 -80.75 34.4375 Z " fill="#0D0095" transform="translate(149.75,2.5625)"/>
<path d="M0 0 C27.90279383 22.58620056 45.70045498 53.92305214 50.22558594 89.59228516 C51.1347771 107.13277724 51.06161656 124.60458514 46.22558594 141.59228516 C46.04366699 142.25921387 45.86174805 142.92614258 45.67431641 143.61328125 C36.23346456 177.47042016 12.13126959 206.65720201 -18.28662109 223.83105469 C-48.51499446 240.24074309 -86.58167486 245.3517972 -119.77441406 235.59228516 C-120.87197021 235.2708252 -120.87197021 235.2708252 -121.99169922 234.94287109 C-142.25290495 228.78790831 -161.35438375 218.20886699 -176.77441406 203.59228516 C-176.77441406 202.93228516 -176.77441406 202.27228516 -176.77441406 201.59228516 C-177.76441406 201.26228516 -178.75441406 200.93228516 -179.77441406 200.59228516 C-179.77441406 199.93228516 -179.77441406 199.27228516 -179.77441406 198.59228516 C-180.43441406 198.59228516 -181.09441406 198.59228516 -181.77441406 198.59228516 C-185.01116918 195.12480412 -187.8653361 191.33597421 -190.77441406 187.59228516 C-191.35578125 186.86009766 -191.93714844 186.12791016 -192.53613281 185.37353516 C-203.1048408 171.24780438 -210.58287699 154.66891769 -214.77441406 137.59228516 C-214.9494043 136.89167969 -215.12439453 136.19107422 -215.3046875 135.46923828 C-223.30794483 101.7129252 -216.65949286 65.41164279 -199.14111328 35.80615234 C-179.643407 4.22251523 -149.44686653 -17.24097245 -113.42407227 -25.8425293 C-73.55738596 -34.34629589 -31.98066222 -25.37156004 0 0 Z M-117.77441406 -19.40771484 C-118.44714355 -19.2257959 -119.11987305 -19.04387695 -119.81298828 -18.85644531 C-139.92818097 -13.24185299 -157.36658791 -2.25641573 -172.77441406 11.59228516 C-173.57878906 12.31158203 -174.38316406 13.03087891 -175.21191406 13.77197266 C-197.53533442 34.8994955 -212.08405307 66.95719238 -213.01269531 97.66259766 C-213.62696992 136.40597127 -202.48949193 168.23468894 -175.77441406 196.59228516 C-175.175 197.25615234 -174.57558594 197.92001953 -173.95800781 198.60400391 C-159.48217199 214.01779886 -139.1069974 225.25429156 -118.77441406 230.59228516 C-118.08460449 230.7854834 -117.39479492 230.97868164 -116.68408203 231.17773438 C-94.99389556 237.08885305 -70.33072856 236.92709425 -48.77441406 230.59228516 C-47.51628906 230.25326172 -46.25816406 229.91423828 -44.96191406 229.56494141 C-25.40173282 223.7424722 -8.49017332 212.51511919 6.22558594 198.59228516 C7.04929688 197.83302734 7.87300781 197.07376953 8.72167969 196.29150391 C25.32770238 180.46267416 36.20012969 159.56170789 42.22558594 137.59228516 C42.56460938 136.41794922 42.90363281 135.24361328 43.25292969 134.03369141 C51.08410665 101.08500676 43.70864411 65.12730381 26.22558594 36.59228516 C20.89407313 28.68039604 14.7594291 21.52784742 8.22558594 14.59228516 C7.62617188 13.92841797 7.02675781 13.26455078 6.40917969 12.58056641 C-14.46644307 -9.64768849 -46.19449195 -22.52142819 -76.35253906 -23.72021484 C-90.61345871 -24.06904029 -104.00726057 -23.20953599 -117.77441406 -19.40771484 Z " fill="#0D0095" transform="translate(233.7744140625,44.40771484375)"/>
</svg>
